<svg id="Layer_1" data-name="Layer 1" xmlns="http://www.w3.org/2000/svg" xmlns:xlink="http://www.w3.org/1999/xlink" viewBox="0 0 971.71 172.28"><defs><style>.cls-1{fill:#1b4298;}.cls-2{fill:url(#radial-gradient);}.cls-3{fill:url(#radial-gradient-2);}.cls-4{fill:url(#radial-gradient-3);}.cls-5{fill:url(#radial-gradient-4);}.cls-6{fill:url(#radial-gradient-5);}.cls-7{fill:url(#radial-gradient-6);}.cls-8{clip-path:url(#clip-path);}.cls-9{fill:#f68b1f;}</style><radialGradient id="radial-gradient" cx="405.11" cy="-25.8" r="45.81" gradientTransform="translate(229.32 122.57) scale(0.9)" gradientUnits="userSpaceOnUse"><stop offset="0" stop-color="#fd0"/><stop offset="0.16" stop-color="#fcbe0b"/><stop offset="0.43" stop-color="#f78f1c"/><stop offset="0.67" stop-color="#f36d29"/><stop offset="0.87" stop-color="#f15930"/><stop offset="1" stop-color="#f05133"/></radialGradient><radialGradient id="radial-gradient-2" cx="394.83" cy="-35.81" r="53.81" xlink:href="#radial-gradient"/><radialGradient id="radial-gradient-3" cx="379.51" cy="-38.49" r="67.31" xlink:href="#radial-gradient"/><radialGradient id="radial-gradient-4" cx="363.31" cy="-34.24" r="87.07" xlink:href="#radial-gradient"/><radialGradient id="radial-gradient-5" cx="355.77" cy="-55.74" r="125.71" gradientTransform="translate(229.32 153.08) scale(0.9)" gradientUnits="userSpaceOnUse"><stop offset="0" stop-color="#fd0"/><stop offset="0.15" stop-color="#fcbe0b"/><stop offset="0.41" stop-color="#f78f1c"/><stop offset="0.63" stop-color="#f36d29"/><stop offset="0.82" stop-color="#f15930"/><stop offset="0.94" stop-color="#f05133"/></radialGradient><radialGradient id="radial-gradient-6" cx="351.58" cy="-8.43" r="162.05" gradientTransform="translate(229.32 122.57) scale(0.9)" gradientUnits="userSpaceOnUse"><stop offset="0" stop-color="#fd0"/><stop offset="0.14" stop-color="#fcbe0b"/><stop offset="0.38" stop-color="#f78f1c"/><stop offset="0.58" stop-color="#f36d29"/><stop offset="0.76" stop-color="#f15930"/><stop offset="0.87" stop-color="#f05133"/></radialGradient><clipPath id="clip-path" transform="translate(-29.75 -22.52)"><path class="cls-1" d="M978.45,92V33.83L967.4,36.41V80.8c0,6.72.9,9.35,1,10-.37.15-3.54,1.72-9.63,1.72h-22c.35-.57,1.22-5.57-2.41-12-5.9-10.43-9.29-19-17.72-19-10.4,0-14.72,10.15-22,22.23-2,3.3-4,8.79-12.46,8.79h-18a7,7,0,0,1-1.14-3.87c0-14.1-5.59-22.38-11.41-26.82l-7.54,7.5c5.76,4.19,8.29,8.93,8.29,17.74,0,3.89.76,4.77,1.14,5.45H840.69a10.41,10.41,0,0,1-1-4.95c0-11.19-6.17-16.33-10-19.46l-7.33,7.48c1.33,1,7.11,4.16,7.11,11.57,0,3.56.67,4.84.89,5.35H818.28a11.42,11.42,0,0,1-.92-4.95c0-11.19-6.21-16.33-10-19.46l-7.36,7.48c1.42,1.16,7.13,4.66,7.13,12.05a11.09,11.09,0,0,0,.89,4.87H779.47c-.72-9.47-5.47-17-10.91-20.91l-7.73,7.79c4.86,5.2,7.49,11.06,7.49,19.34,0,12.58-7.86,20.4-21.74,22.72l1,7.28c21.81-1.36,31.17-13.54,31.82-25.35H885.05c8,0,11.62-4.25,12.56-5.89,1,1.14,5.21,5.89,16.41,5.89h44.25a58.78,58.78,0,0,0,21.37-3.75A24.68,24.68,0,0,1,978.45,92Zm-56.16.57h-4.53c-9,0-12.23-3.68-14.11-5.52,5.15-9.11,7-13.48,11.47-13.48,3.85,0,5.27,4,9.88,12.34C927.14,89.68,925.11,92.53,922.29,92.53Z"/></clipPath></defs><title>mashreq-bank-logo-en</title><path class="cls-1" d="M316.84,82.73H287c.43,6.07,5.25,10.43,12.64,10.43A20.3,20.3,0,0,0,310.78,90l3.78,8.59a31.31,31.31,0,0,1-15.14,4.14,23.75,23.75,0,0,1-24.3-23.61c-.13-13.55,6.72-24.58,21.41-24.58,13.33,0,21,9.29,21,22.1A36.69,36.69,0,0,1,316.84,82.73Zm-20.32-19c-6.59,0-9.41,5.14-9.47,10.33h19C306,68.22,302.71,63.7,296.52,63.7Z" transform="translate(-29.75 -22.52)"/><path class="cls-1" d="M124.62,102.75c-10,0-20.69-3.51-20.69-14.31,0-12.56,13.54-13.54,22-15.5,4-.95,6.64-2,6.64-4.68,0-2.5-3-4.3-7.75-4.3a34.23,34.23,0,0,0-12.85,3l-3.79-8.38c.84-.39,8.82-4,17.32-4,11.43,0,18.15,5.95,18.15,16.89V91.66a24.69,24.69,0,0,0,.84,7.49A65.61,65.61,0,0,1,124.62,102.75ZM132.54,87v-7.9c-1.56,1.25-5.34,2.25-8.71,3.05-4,.92-7.72,2.3-7.72,5.73,0,4.25,4.07,5.8,8.35,5.8a26.25,26.25,0,0,0,8.45-1.44A29.92,29.92,0,0,1,132.54,87Z" transform="translate(-29.75 -22.52)"/><path class="cls-1" d="M223.92,101.74V72.94c0-5.46-3.11-8.75-8.52-8.75-4.07,0-8.25,2.34-9.82,3.41v34.15H194.5V34.52l11.08-2.59V58.2a25.5,25.5,0,0,1,13-3.66c10.63,0,16.48,6.31,16.48,16.38v30.82Z" transform="translate(-29.75 -22.52)"/><path class="cls-1" d="M366.47,66.1v55l-11.09,1.42V101.18a25.07,25.07,0,0,1-8.49,1.57c-12.46,0-22.83-10.06-22.83-24.2s9.73-24,24.85-24A60.46,60.46,0,0,1,367,57.88,58.47,58.47,0,0,0,366.47,66.1Zm-17.81-1.91c-8.7,0-12.2,6.63-12.2,14.49,0,7.65,4.63,14.47,12.84,14.47a15,15,0,0,0,6.08-1.3V71.12a43,43,0,0,1,.43-5.77A20.55,20.55,0,0,0,348.65,64.19Z" transform="translate(-29.75 -22.52)"/><path class="cls-1" d="M84.69,101.74v-29c0-5.16-2.64-8.53-8.09-8.53A20.79,20.79,0,0,0,68,66.59a30.64,30.64,0,0,1,.71,7.07v28.09H57.67V72.66c0-5.18-2.86-8.43-8.11-8.43a20.78,20.78,0,0,0-8.25,2,20.09,20.09,0,0,1,.39,4.48v31H30.62V65.19a24.07,24.07,0,0,0-.87-5.92c1.15-.46,11.9-4.74,20.87-4.74,9.55,0,13,4.06,13.49,4.55.77-.43,7.15-4.55,14.39-4.55,10.4,0,17.31,5.95,17.31,16v31.22Z" transform="translate(-29.75 -22.52)"/><path class="cls-1" d="M271,65.08a24.68,24.68,0,0,0-6.1-.89,32.62,32.62,0,0,0-8.73,1.24,29.33,29.33,0,0,1,.52,6.31v30H245.59v-33a46.13,46.13,0,0,0-.83-9.07c1.23-.46,11.14-5.08,21-5.08a35.8,35.8,0,0,1,8.51,1Z" transform="translate(-29.75 -22.52)"/><path class="cls-1" d="M167.64,102.75a43.23,43.23,0,0,1-15.23-3L155.63,91c.24.11,5.13,2.76,10.1,2.76,5.34,0,8-2.21,8-5.25,0-2.18-1.46-4-5.19-5.58-1.26-.5-3.24-1.27-4.65-1.78-4.78-1.79-10.29-5.1-10.29-12.81,0-9.15,8.44-13.78,16.83-13.84A30.51,30.51,0,0,1,184,57.36l-3.14,8.55a28.27,28.27,0,0,0-10.12-2.09c-3.09,0-5.76,1.18-5.76,3.94,0,2.56,1.84,3.9,5.21,5.23,1.34.5,3.23,1.21,4.67,1.83,6,2.35,11.17,6.09,11.17,13.45C186,98.44,177.28,102.75,167.64,102.75Z" transform="translate(-29.75 -22.52)"/><path class="cls-2" d="M615.31,97.7c6.84-3.63,10.68-9.8,13.41-16.77-7.3-1.67-14.57-2-21.42,1.66s-10.67,9.8-13.38,16.76C601.21,101,608.47,101.31,615.31,97.7Z" transform="translate(-29.75 -22.52)"/><path class="cls-3" d="M605.68,74.95c-6,9.55-14,13.31-21,15.4-1.16-7.26-1.23-16.07,4.77-25.6s14-13.28,21-15.4C611.61,56.61,611.66,65.41,605.68,74.95Z" transform="translate(-29.75 -22.52)"/><path class="cls-4" d="M582.39,58.67c.22-13.64-6.3-23.92-10.58-29.65-4.68,5.91-11.29,15.72-11.5,29.28-.19,12.56,5.23,22.51,10.56,29.63C576.38,80.88,582.18,71.24,582.39,58.67Z" transform="translate(-29.75 -22.52)"/><path class="cls-5" d="M549.13,50.92c-8.23-15.23-21.51-23.49-30.17-28.4-.45,10.21-1.23,25.26,7.17,40.83,7.63,14.15,19.25,22,30.16,28.41C557.14,79.16,556.61,64.82,549.13,50.92Z" transform="translate(-29.75 -22.52)"/><path class="cls-6" d="M508,61.8c-19-10.75-40.68-13.19-54.89-13,6.83,11.81,20,29.37,39.44,40.35,18.68,10.57,39.82,13.2,54.89,13C539.48,88.81,526.71,72.39,508,61.8Z" transform="translate(-29.75 -22.52)"/><path class="cls-7" d="M472,98.38c-23.62,0-50,7-71.1,16.78,21.42,9.71,46.84,16.78,71.1,16.78,19.36,0,42.5-3.77,71.11-16.78C511.79,101.08,490.08,98.39,472,98.38Z" transform="translate(-29.75 -22.52)"/><polygon class="cls-1" points="702.2 22.77 694.53 15.31 687.28 22.59 680.09 15.37 672.75 23.16 680.19 30.62 687.28 23.31 694.75 30.62 702.2 22.77"/><path class="cls-1" d="M1001.46,103.4H990.4v-67l11.06-2.58Z" transform="translate(-29.75 -22.52)"/><path class="cls-1" d="M978.45,92V33.83L967.4,36.41V80.8c0,6.72.9,9.35,1,10-.37.15-3.54,1.72-9.63,1.72h-22c.35-.57,1.22-5.57-2.41-12-5.9-10.43-9.29-19-17.72-19-10.4,0-14.72,10.15-22,22.23-2,3.3-4,8.79-12.46,8.79h-18a7,7,0,0,1-1.14-3.87c0-14.1-5.59-22.38-11.41-26.82l-7.54,7.5c5.76,4.19,8.29,8.93,8.29,17.74,0,3.89.76,4.77,1.14,5.45H840.69a10.41,10.41,0,0,1-1-4.95c0-11.19-6.17-16.33-10-19.46l-7.33,7.48c1.33,1,7.11,4.16,7.11,11.57,0,3.56.67,4.84.89,5.35H818.28a11.42,11.42,0,0,1-.92-4.95c0-11.19-6.21-16.33-10-19.46l-7.36,7.48c1.42,1.16,7.13,4.66,7.13,12.05a11.09,11.09,0,0,0,.89,4.87H779.47c-.72-9.47-5.47-17-10.91-20.91l-7.73,7.79c4.86,5.2,7.49,11.06,7.49,19.34,0,12.58-7.86,20.4-21.74,22.72l1,7.28c21.81-1.36,31.17-13.54,31.82-25.35H885.05c8,0,11.62-4.25,12.56-5.89,1,1.14,5.21,5.89,16.41,5.89h44.25a58.78,58.78,0,0,0,21.37-3.75A24.68,24.68,0,0,1,978.45,92Zm-56.16.57h-4.53c-9,0-12.23-3.68-14.11-5.52,5.15-9.11,7-13.48,11.47-13.48,3.85,0,5.27,4,9.88,12.34C927.14,89.68,925.11,92.53,922.29,92.53Z" transform="translate(-29.75 -22.52)"/><g class="cls-8"><path class="cls-1" d="M915.12,73.52c-4.5,0-6.32,4.37-11.47,13.48,1.87,1.84,5.13,5.52,14.11,5.52h4.53c2.81,0,4.84-2.85,2.71-6.67C920.4,77.53,919,73.52,915.12,73.52Z" transform="translate(-29.75 -22.52)"/></g><polygon class="cls-1" points="813.27 22.74 805.58 15.28 798.32 22.57 791.13 15.4 783.8 23.12 791.23 30.62 798.32 23.31 805.78 30.62 813.27 22.74"/><polygon class="cls-1" points="805.78 10.66 798.25 3.1 790.89 10.88 798.34 18.33 805.78 10.66"/><path class="cls-1" d="M698.74,125.13c-41.37,0-39-34.38-27.85-53.22l8.78,4.43C666.3,98.58,676.83,114,698.74,114c17.94,0,29-4.6,30.53-10.7l-12.39.07c-25.44,0-16.59-33.25-1.93-37.1,7.13-1.88,12.83,2.64,15.6,5.6,5.23,5.6,9.8,11.67,9.8,24.9C740.35,113.86,728.14,125.13,698.74,125.13Zm17.17-47.45c-8.82,1.7-9.05,14.83,3.58,14.83h9.77C726.12,80.66,719.37,77,715.91,77.69Z" transform="translate(-29.75 -22.52)"/><path class="cls-9" d="M549.77,194.76c-3.12,0-5.95-.71-6.94-4.07l-5.11-17.21-6.45,21.29c-3,0-5.61-.67-6.65-4.07l-7.57-24.78H523l5.74,21.29h.08c.13-.62.33-1.25.5-1.87l5.57-19.42h6.07l6.28,21.29h.08c.12-.62.33-1.25.5-1.87l5-19.42h5.32Z" transform="translate(-29.75 -22.52)"/><path class="cls-9" d="M569,194.34V165.9h16.58v4.49H574.15v7h9.52v4.33h-9.52v8.15h11.77v4.49Z" transform="translate(-29.75 -22.52)"/><path class="cls-9" d="M640.85,194.34V170.81h-.09a5,5,0,0,1-.33,1.08l-8.11,16.38c-2,0-3-.67-4.37-3.41l-6.36-13a4.17,4.17,0,0,1-.33-1h-.09v23.49h-5.07V165.95h7.69l7.27,15.13h.08a8,8,0,0,1,.62-1.62l6.48-13.51h7.65v28.39Z" transform="translate(-29.75 -22.52)"/><path class="cls-9" d="M679.07,194.34l-2.82-7.24h-11l-2.83,7.19-5.57,0,11.76-28.44h4.95l11.3,28.44Zm-8.23-21.49,0,.17-3.7,9.6h7.44Z" transform="translate(-29.75 -22.52)"/><path class="cls-9" d="M711.6,194.34l-8.52-10.14a15.8,15.8,0,0,0-2-1.83H701v12h-5.2V165.9H701v11l9.94-11h6.82L705,179.79a4.73,4.73,0,0,1,1.75,1.21l11.64,13.34Z" transform="translate(-29.75 -22.52)"/><path class="cls-9" d="M729.54,194.34V165.9h16.59v4.49H734.74v7h9.52v4.33h-9.52v8.15h11.77v4.49Z" transform="translate(-29.75 -22.52)"/><path class="cls-9" d="M784.43,183.36a17.68,17.68,0,0,1-2.53-.21v11.18h-5.2v-28.1a35,35,0,0,1,7.82-.79c5.52,0,10.6,2.57,10.6,8.73S790.17,183.36,784.43,183.36Zm0-13.47a13,13,0,0,0-2.53.25v8.65a16.24,16.24,0,0,0,2.41.16c3.08,0,5.41-1.7,5.41-4.95S787.47,169.89,784.43,169.89Z" transform="translate(-29.75 -22.52)"/><path class="cls-9" d="M819.72,194.8c-8.65,0-13.43-6.36-13.43-14.64s4.65-14.71,13.43-14.71,13.47,6.36,13.47,14.71S828.37,194.8,819.72,194.8Zm0-24.86c-5.78,0-7.86,5.15-7.86,10.23s2.17,10.14,7.86,10.14,7.9-5.15,7.9-10.14S825.5,169.93,819.72,169.93Z" transform="translate(-29.75 -22.52)"/><path class="cls-9" d="M852.54,194.8a23.76,23.76,0,0,1-8.15-1.5l1.29-4.37a21.68,21.68,0,0,0,6.86,1.37c2.2,0,5.07-.79,5.07-3.49,0-5.53-13-3.87-13-13.51,0-5.57,5-7.86,9.94-7.86a23.66,23.66,0,0,1,7.61,1.46l-1.58,4.24a19,19,0,0,0-5.86-1.21c-2,0-4.49.71-4.49,3.16,0,4.74,13.05,3.45,13.05,13.22C863.27,192.13,857.69,194.8,852.54,194.8Z" transform="translate(-29.75 -22.52)"/><path class="cls-9" d="M882.75,194.8a23.79,23.79,0,0,1-8.15-1.5l1.29-4.37a21.69,21.69,0,0,0,6.86,1.37c2.2,0,5.07-.79,5.07-3.49,0-5.53-13-3.87-13-13.51,0-5.57,5-7.86,9.94-7.86a23.64,23.64,0,0,1,7.61,1.46l-1.58,4.24a18.94,18.94,0,0,0-5.86-1.21c-2,0-4.49.71-4.49,3.16,0,4.74,13.05,3.45,13.05,13.22C893.47,192.13,887.9,194.8,882.75,194.8Z" transform="translate(-29.75 -22.52)"/><path class="cls-9" d="M906,194.34V165.9h5.19v28.44Z" transform="translate(-29.75 -22.52)"/><path class="cls-9" d="M932.19,194.8A37.66,37.66,0,0,1,925,194V166.28a38.25,38.25,0,0,1,7.23-.83c5.41,0,10.93,1.58,10.93,8a6.78,6.78,0,0,1-4.24,6.11v.08a6.68,6.68,0,0,1,5.28,6.82C944.25,193.3,937.76,194.8,932.19,194.8Zm.33-24.86a13.92,13.92,0,0,0-2.29.21v7.32h2.53c2.58,0,5.11-.79,5.11-3.83C937.88,170.31,935.18,169.93,932.53,169.93Zm.37,12h-2.66v8a14.44,14.44,0,0,0,2.33.21c2.75,0,6.32-.63,6.32-4.07C938.89,182.49,935.81,181.95,932.9,181.95Z" transform="translate(-29.75 -22.52)"/><path class="cls-9" d="M956.45,194.34V165.9h5.2v23.95h11.76v4.49Z" transform="translate(-29.75 -22.52)"/><path class="cls-9" d="M984.5,194.34V165.9h16.59v4.49H989.7v7h9.52v4.33H989.7v8.15h11.76v4.49Z" transform="translate(-29.75 -22.52)"/></svg>